<?xml version="1.0" encoding="UTF-8" standalone="no"?>
<svg
   id="svg"
   version="1.1"
   width="338"
   height="68"
   viewBox="0 0 338 68"
   xmlns="http://www.w3.org/2000/svg"
   xmlns:svg="http://www.w3.org/2000/svg">
  <path
     d="m 9.31766,64.75699 c -1.39288,-1e-5 -2.61433,-0.075 -3.66436,-0.225 C 4.60328,64.4034 3.71398,64.24268 2.98538,64.04983 V 55.7568 c 0.79288,0.17143 1.62861,0.32143 2.5072,0.45001 0.85716,0.12857 1.80004,0.19285 2.82863,0.19286 0.98574,-1e-5 1.89647,-0.10715 2.7322,-0.32144 0.85717,-0.21429 1.59646,-0.5893 2.21791,-1.12502 0.64287,-0.5143 1.13573,-1.21074 1.4786,-2.08933 0.36429,-0.87859 0.54644,-1.98218 0.54644,-3.31079 V 3.94139 h 9.96451 v 45.29027 c -2e-5,2.70006 -0.39646,5.0251 -1.18932,6.97515 -0.77146,1.95003 -1.86433,3.55721 -3.27864,4.82153 -1.39289,1.28573 -3.06436,2.22861 -5.01439,2.82864 -1.95005,0.59999 -4.10367,0.9 -6.46086,0.90001"
     style="fill:#d22128;stroke:#ffffff;paint-order:markers stroke fill;stroke-width:4;stroke-miterlimit:4;stroke-dasharray:none"
     id="path1188" />
  <path
     d="m 30.60061,3.94626 v 46.98748 h 8.90855 V 29.07196 c -4e-5,-0.6 -0.017,-1.27231 -0.0384,-2.02235 -10e-6,-0.74999 -0.0211,-1.528 -0.064,-2.34233 -0.0215,-0.81427 -0.0467,-1.63457 -0.0896,-2.47033 -0.0215,-0.8357 -0.0596,-1.65183 -0.10239,-2.44473 -0.0857,-1.84287 -0.19144,-3.74994 -0.31999,-5.72144 h 0.29439 l 10.31651,36.86296 h 9.15174 L 69.78031,14.13478 h 0.25599 c -0.0643,1.95007 -0.13192,3.81903 -0.21759,5.61904 -0.0215,0.77148 -0.0596,1.56646 -0.1024,2.38073 -0.0215,0.81433 -0.0426,1.61349 -0.064,2.40633 -0.0215,0.79291 -0.0426,1.54561 -0.064,2.25274 -4e-5,0.70718 -4e-5,1.33722 0,1.89435 v 22.24577 h 9.29254 V 3.94626 H 65.31323 L 54.51034,39.87485 h -0.192 L 44.16823,3.94626 Z m 93.29657,3.40471 -2.82872,7.57739 -5.38864,3.2895 v 4.14709 h 4.68466 v 17.31791 c 0,2.31434 0.27482,4.24255 0.83198,5.78544 0.57858,1.52146 1.36939,2.73925 2.35513,3.66069 0.98573,0.90002 2.15706,1.54285 3.50711,1.90715 1.35001,0.36429 2.80034,0.53758 4.36467,0.53758 1.60716,0 3.09143,-0.15215 4.44148,-0.47358 1.37143,-0.30001 2.50883,-0.69333 3.4303,-1.16477 v -7.29579 c -0.90004,0.32144 -1.78376,0.59209 -2.66232,0.80637 -0.85719,0.2143 -1.77484,0.32 -2.73913,0.31999 -1.11432,10e-6 -2.01501,-0.33406 -2.70072,-0.99837 -0.68575,-0.66429 -1.02399,-1.69182 -1.02397,-3.08471 V 22.36495 h 8.74215 v -7.3598 h -8.74215 V 7.35097 Z m -25.16409,6.9758 c -2.44292,4e-5 -4.66709,0.39753 -6.68141,1.19037 -1.99291,0.7929 -3.70972,1.97258 -5.14546,3.5583 -1.41432,1.56435 -2.52223,3.53067 -3.3151,5.88783 -0.79288,2.35722 -1.19037,5.10572 -1.19037,8.25577 0,3.10722 0.4356,5.82624 1.29277,8.14057 0.87858,2.29291 2.09637,4.19999 3.66069,5.72144 1.56431,1.50004 3.4291,2.61629 5.59344,3.36631 2.16432,0.75001 4.53231,1.12636 7.1038,1.12636 1.32858,0 2.54637,-0.0464 3.6607,-0.15359 1.11429,-0.0857 2.15878,-0.2337 3.12311,-0.44799 0.96428,-0.21429 1.86914,-0.48077 2.72633,-0.78078 0.87856,-0.32143 1.75393,-0.70195 2.61112,-1.15196 v -7.59019 c -0.94291,0.47145 -1.86473,0.89008 -2.76472,1.25436 -0.90005,0.34287 -1.8177,0.63467 -2.73912,0.87038 -0.92148,0.23573 -1.86861,0.42181 -2.85432,0.55038 -0.96433,0.10716 -1.99186,0.15361 -3.08471,0.1536 -1.3072,1e-5 -2.47853,-0.19442 -3.50711,-0.60158 -1.00718,-0.40715 -1.88255,-0.99073 -2.61112,-1.74075 -0.70718,-0.77144 -1.25682,-1.71024 -1.66396,-2.80313 -0.38573,-1.11429 -0.59713,-2.35322 -0.63998,-3.72469 h 21.91299 v -4.76147 c -4e-5,-2.61431 -0.35942,-4.92305 -1.08797,-6.9374 -0.70719,-2.03573 -1.73472,-3.75254 -3.08472,-5.14546 -1.32862,-1.39285 -2.96087,-2.44151 -4.88946,-3.14871 -1.90721,-0.72855 -4.04682,-1.08793 -6.42542,-1.08797 z m 59.01914,0 c -2.44292,4e-5 -4.6671,0.39753 -6.68141,1.19037 -1.99291,0.7929 -3.70972,1.97258 -5.14546,3.5583 -1.41432,1.56435 -2.52223,3.53067 -3.3151,5.88783 -0.79288,2.35722 -1.19037,5.10572 -1.19037,8.25577 0,3.10722 0.4356,5.82624 1.29276,8.14057 0.87859,2.29291 2.09637,4.19999 3.6607,5.72144 1.56431,1.50004 3.4291,2.61629 5.59344,3.36631 2.16432,0.75001 4.5323,1.12636 7.1038,1.12636 1.32858,0 2.54637,-0.0464 3.6607,-0.15359 1.11429,-0.0857 2.15878,-0.2337 3.12311,-0.44799 0.96428,-0.21429 1.86914,-0.48077 2.72633,-0.78078 0.87856,-0.32143 1.75393,-0.70195 2.61112,-1.15196 v -7.59019 c -0.94291,0.47145 -1.86473,0.89008 -2.76472,1.25436 -0.90005,0.34287 -1.8177,0.63467 -2.73912,0.87038 -0.92148,0.23573 -1.86861,0.42181 -2.85432,0.55038 -0.96433,0.10716 -1.99186,0.15361 -3.08471,0.1536 -1.3072,1e-5 -2.47853,-0.19442 -3.50711,-0.60158 -1.00718,-0.40715 -1.86975,-0.99073 -2.59832,-1.74075 -0.70717,-0.77144 -1.26962,-1.71024 -1.67676,-2.80313 -0.38573,-1.11429 -0.59713,-2.35322 -0.63998,-3.72469 h 21.91299 v -4.76147 c -4e-5,-2.61431 -0.35942,-4.92305 -1.08797,-6.9374 -0.7072,-2.03573 -1.73472,-3.75254 -3.08472,-5.14546 -1.32862,-1.39285 -2.96088,-2.44151 -4.88946,-3.14871 -1.90721,-0.72855 -4.04682,-1.08793 -6.42542,-1.08797 z m 36.85016,0 c -1.20004,4e-5 -2.26985,0.14802 -3.21271,0.44799 -0.92147,0.27861 -1.75873,0.68028 -2.50872,1.21597 -0.72861,0.51433 -1.38395,1.15716 -1.98395,1.90714 -0.60003,0.75005 -1.16247,1.57452 -1.67675,2.49593 h -0.48639 l -1.44636,-5.38865 h -7.42379 v 35.92859 h 9.80453 V 32.64306 c -2e-5,-1.69288 0.20721,-3.11789 0.61438,-4.27508 0.42856,-1.17858 1.01631,-2.12154 1.76635,-2.82872 0.77143,-0.72856 1.68908,-1.2529 2.73912,-1.57436 1.07143,-0.32141 2.22997,-0.48636 3.4943,-0.48639 0.21427,5e-5 0.48492,0.017 0.80638,0.0384 0.32141,3e-5 0.63851,0.0212 0.95997,0.064 0.34284,0.0215 0.67274,0.0596 0.97278,0.1024 0.29997,0.0429 0.53251,0.0852 0.70398,0.12799 v -9.20294 c -0.12861,-0.0428 -0.31887,-0.0681 -0.57599,-0.0896 -0.23574,-0.0428 -0.5064,-0.0809 -0.80637,-0.1024 -0.27861,-0.0428 -0.57457,-0.064 -0.89598,-0.064 -0.30003,-0.0214 -0.58765,-0.0256 -0.84478,-0.0256 z m -95.8053,6.97581 c 1.02857,2e-5 1.92926,0.19029 2.70072,0.57598 0.77143,0.38575 1.41843,0.91425 1.93275,1.59995 0.51427,0.66433 0.89479,1.45932 1.15197,2.38074 0.25712,0.92147 0.40092,1.92785 0.42239,3.02071 H 92.49967 c 0.17142,-2.61431 0.82259,-4.52556 1.95834,-5.74704 1.15716,-1.22142 2.60331,-1.83032 4.33908,-1.83034 z m 59.01914,0 c 1.02857,2e-5 1.92926,0.19029 2.70072,0.57598 0.77143,0.38575 1.41843,0.91425 1.93275,1.59995 0.51427,0.66433 0.89479,1.45932 1.15197,2.38074 0.25712,0.92147 0.40092,1.92785 0.42238,3.02071 h -12.50524 c 0.17142,-2.61431 0.82259,-4.52556 1.95834,-5.74704 1.15715,-1.22142 2.60331,-1.83032 4.33908,-1.83034 z"
     id="path1190"
     style="paint-order:markers stroke fill;stroke:#ffffff;stroke-width:4;stroke-miterlimit:4;stroke-dasharray:none" />
  <path
     d="M 335.84128,51.56774 H 301.90613 V 4.51985 h 12.13323 v 37.94796 h 21.80192 z M 298.57253,36.78036 q 0,6.95133 -5.90864,11.31172 -5.87703,4.32878 -15.98807,4.32878 -5.84544,0 -10.20582,-1.0111 -4.32878,-1.0427 -8.12042,-2.62255 V 37.50709 h 1.32707 q 3.76004,3.00171 8.4048,4.61316 4.67635,1.61144 8.97354,1.61144 1.10589,0 2.90692,-0.18958 1.80103,-0.18958 2.93852,-0.63194 1.39026,-0.56874 2.27498,-1.42186 0.91631,-0.85312 0.91631,-2.52776 0,-1.54825 -1.32707,-2.65415 -1.29548,-1.13749 -3.82324,-1.73783 -2.65414,-0.63194 -5.62426,-1.16909 -2.93851,-0.56874 -5.52947,-1.42186 -5.94023,-1.92742 -8.56278,-5.2135 -2.59095,-3.31768 -2.59095,-8.21522 0,-6.57217 5.87704,-10.71137 5.90863,-4.1708 15.16655,-4.1708 4.64475,0 9.16312,0.91631 4.54996,0.88472 7.86764,2.24339 v 10.83776 h -1.29547 q -2.84373,-2.27498 -6.98293,-3.79164 -4.10761,-1.54825 -8.4048,-1.54825 -1.51665,0 -3.03331,0.22118 -1.48505,0.18958 -2.87532,0.75833 -1.23228,0.47395 -2.117,1.45346 -0.88471,0.94791 -0.88471,2.18019 0,1.86422 1.42186,2.87532 1.42186,0.97951 5.37149,1.80103 2.59095,0.53715 4.96072,1.0427 2.40137,0.50555 5.15031,1.39027 5.40308,1.76943 7.96243,4.83434 2.59096,3.0333 2.59096,7.89924 z m -43.0692,-8.68917 q 0,6.57217 -3.00171,11.78567 -3.00171,5.18191 -7.58328,7.96244 -3.44407,2.0854 -7.55167,2.90692 -4.10761,0.82152 -9.73187,0.82152 H 211.04639 V 4.51985 h 17.06236 q 5.75065,0 9.92145,0.9795 4.1708,0.94791 7.01453,2.71734 4.86594,2.97012 7.64647,8.02564 2.81213,5.02391 2.81213,11.84886 z m -12.544,-0.0948 q 0,-4.64476 -1.70623,-7.93084 -1.67464,-3.31768 -5.33989,-5.1819 -1.86422,-0.91632 -3.82324,-1.23229 -1.92741,-0.34756 -5.84544,-0.34756 h -3.0649 v 29.44838 h 3.0649 q 4.32879,0 6.35099,-0.37917 2.02221,-0.41076 3.94963,-1.45346 3.31768,-1.89582 4.86593,-5.05551 1.54825,-3.1913 1.54825,-7.86765 z"
     style="fill:#5599ff;stroke:#ffffff;stroke-width:4;stroke-miterlimit:4;stroke-dasharray:none;paint-order:markers stroke fill"
     id="path1192" />
</svg>
